<?xml version="1.0" encoding="utf-8"?>
<!-- Generator: Adobe Illustrator 21.0.2, SVG Export Plug-In . SVG Version: 6.00 Build 0)  -->
<svg version="1.1" id="Layer_1" xmlns="http://www.w3.org/2000/svg" xmlns:xlink="http://www.w3.org/1999/xlink" x="0px" y="0px"
	 viewBox="0 0 40 40" style="enable-background:new 0 0 40 40;" xml:space="preserve">
<style type="text/css">
	.st0{fill:#3C579F;}
</style>
<g>
	<path class="st0" d="M20,40C9,40,0,31,0,20C0,9,9,0,20,0c11,0,20,9,20,20C40,31,31,40,20,40z M21.7,14.8c0.9,0,1.8,0,1.8,0l0.1-2.7
		c0,0-0.9-0.1-2-0.1c-2.8,0-4.1,1.8-4.1,3.7c0,1.3,0,2.4,0,2.4h-2.1V21h2.1v6.9h3V21h3l0.1-2.8h-3.1c0-1.2,0-1.7,0-1.9
		c0,0,0,0,0-0.1C20.5,15.2,20.7,14.8,21.7,14.8z"/>
</g>
</svg>
