<?xml version="1.0" encoding="utf-8"?>
<!-- Generator: Adobe Illustrator 21.0.2, SVG Export Plug-In . SVG Version: 6.00 Build 0)  -->
<svg version="1.1" id="Layer_1" xmlns="http://www.w3.org/2000/svg" xmlns:xlink="http://www.w3.org/1999/xlink" x="0px" y="0px"
	 viewBox="0 0 40 40" style="enable-background:new 0 0 40 40;" xml:space="preserve">
<style type="text/css">
	.st0{fill:#DA5032;}
</style>
<g>
	<path class="st0" d="M20,40C9,40,0,31,0,20C0,9,9,0,20,0s20,9,20,20C40,31,31,40,20,40z M23.7,12.2c0-0.2-0.2-0.3-0.4-0.3h-4.8
		c-0.5,0-1.1,0.1-1.6,0.3c-1.7,0.6-3,2.1-3,3.6c0,2.1,1.7,3.8,3.9,3.8c0,0.2-0.1,0.3-0.1,0.5c0,0.3,0.1,0.6,0.3,0.9c0,0,0,0-0.1,0
		c-2.1,0-4,1-4.8,2.6C13.1,24,13,24.4,13,24.8c0,0.4,0.1,0.8,0.3,1.1c0.5,0.8,1.4,1.4,2.8,1.8c0.7,0.2,1.4,0.3,2.2,0.3
		c0.7,0,1.3-0.1,2-0.3c1.9-0.5,3.1-1.9,3.1-3.5c0-1.5-0.5-2.4-1.8-3.4c-0.6-0.4-1.1-1-1.1-1.2c0-0.3,0-0.5,0.8-1.1
		c1-0.7,1.5-1.7,1.5-2.8c0-0.9-0.3-1.8-0.8-2.4h0.4c0.1,0,0.2,0,0.2-0.1l1.1-0.8C23.7,12.6,23.7,12.4,23.7,12.2z M31,19.6v-0.8
		c0-0.2-0.2-0.4-0.4-0.4h-2.7v-2.7c0-0.2-0.2-0.4-0.4-0.4h-0.8l-0.4,3.1h-2.7c-0.2,0-0.4,0.2-0.4,0.4v0.8c0,0.2,0.2,0.4,0.4,0.4h2.7
		v2.7c0,0.2,0.2,0.4,0.4,0.4h0.8c0.2,0,0.4-0.2,0.4-0.4V20h2.7C30.8,20,31,19.8,31,19.6L31,19.6z M18.8,18.4L18.8,18.4
		c-1,0-2.1-1.2-2.3-2.6c-0.1-0.8,0.1-1.5,0.5-1.9c0.3-0.3,0.6-0.4,1-0.4h0c1.1,0,2.1,1.2,2.2,2.6c0.1,0.8-0.1,1.5-0.5,2
		C19.5,18.2,19.2,18.4,18.8,18.4z M18.6,22.2c0.4,0,0.7,0.1,1,0.2c0.1,0.1,0.2,0.1,0.3,0.2c0.8,0.5,1.2,0.8,1.4,1.4
		c0,0.1,0,0.3,0,0.4c0,1.4-1,2.1-3.1,2.1c-1.6,0-2.8-0.9-2.8-2.2C15.5,23.2,16.9,22.2,18.6,22.2L18.6,22.2z"/>
</g>
</svg>
