<?xml version="1.0" encoding="utf-8"?>
<!-- Generator: Adobe Illustrator 21.0.2, SVG Export Plug-In . SVG Version: 6.00 Build 0)  -->
<svg version="1.1" id="Layer_1" xmlns="http://www.w3.org/2000/svg" xmlns:xlink="http://www.w3.org/1999/xlink" x="0px" y="0px"
	 viewBox="0 0 76.3 67" style="enable-background:new 0 0 76.3 67;" xml:space="preserve">
<style type="text/css">
	.st0{fill:#FFFFFF;}
	.st1{fill:#54CBFF;}
	.st2{fill:#231F20;}
</style>
<g>
	<g>
		<path class="st0" d="M44.8,23.2C36.1,33.1,27,38.6,23.6,40.6l-3.9-6.8c0,0,9.4-4.6,18.4-14.7c3.8-4.3,7.6-10.9,10.3-15.5
			c2.5-4.3,5.4-1.3,6.3,0c0.5,0.8,1.1,1.7,1.7,2.6C53.1,11.7,48.9,18.5,44.8,23.2z"/>
	</g>
	<g>
		<path class="st1" d="M31.1,57.3L31.1,57.3c-0.2,0.2-0.5,0.4-0.8,0.6L16.2,66c-3.3,1.9-7.6,0.8-9.5-2.6L0.9,53.4
			C-1,50,0.2,45.8,3.5,43.8l14.1-8.2c0.3-0.2,0.6-0.3,0.9-0.4L31.1,57.3z"/>
	</g>
	<g>
		<path class="st2" d="M50.9,2c0.4,0,1.2,0.6,1.7,1.4C57,10.1,63,21.4,63.7,22.7c0,0,0,0.1,0.1,0.1l0,0c2,3.5,6.2,10.8,9.4,16.4
			c1.3,2.1,1.2,3,1.2,3.2c0,0-0.4,0.5-2.4,0.5c-0.1,0-0.2,0-0.4,0c-0.5,0-1.1,0-1.7,0c-6.8,0-12.3,0.4-16.4,1.3
			c-8.4,1.7-15.1,4.7-19.2,6.9c-0.1,0-0.1,0.1-0.2,0.1c-0.1,0-0.1,0.1-0.2,0.1l-2.9,1.7c0,0,0,0,0,0l-11,6.4
			c-0.8,0.4-1.6,0.7-2.5,0.7c-1.8,0-3.4-1-4.3-2.5L7.5,47.4c-1.4-2.4-0.6-5.5,1.8-6.8l14.1-8.2c0,0,0.1,0,0.2-0.1
			c0.1,0,0.1-0.1,0.2-0.1c3.9-2.4,9.8-6.7,15.4-13.1c4-4.5,7.9-11.3,10.5-15.8C50.2,2.4,50.7,2,50.9,2 M50.9,0c-0.9,0-2,0.6-2.9,2.3
			c-2.7,4.6-6.5,11.2-10.3,15.5c-5.6,6.4-11.5,10.6-15,12.8c-0.1,0.1-0.2,0.1-0.3,0.2L8.3,38.8c-3.3,1.9-4.5,6.2-2.5,9.6l5.8,10.1
			c1.3,2.2,3.6,3.5,6,3.5c1.2,0,2.4-0.3,3.5-0.9l11.1-6.4l0,0l3-1.7c0.1,0,0.1-0.1,0.2-0.2c3.7-2,10.2-5,18.6-6.7
			c4.8-1,11-1.2,16-1.2c0.6,0,1.1,0,1.7,0c0.1,0,0.2,0,0.4,0c4.3,0,5.8-1.9,2.9-6.6c-3.2-5.5-7.4-12.9-9.4-16.3
			c0,0-6.5-12.4-11.2-19.5C53.7,1.5,52.4,0,50.9,0L50.9,0z"/>
	</g>
	<g>
		<path class="st2" d="M29.8,55.6l1.6,3.5c0.5,1,1.6,1.4,2.6,1l10.8-5c1-0.5,1.4-1.6,1-2.6L44,48.7l1.8-0.9l1.8,3.8
			c0.9,2,0.1,4.3-1.9,5.2l-10.8,5c-2,0.9-4.3,0.1-5.3-1.9L28,56.5L29.8,55.6z"/>
	</g>
	<g>
		
			<rect x="27.6" y="30.5" transform="matrix(0.8658 -0.5004 0.5004 0.8658 -17.2797 19.9609)" class="st2" width="2" height="23.4"/>
	</g>
</g>
</svg>
