<?xml version="1.0" encoding="utf-8"?>
<!-- Generator: Adobe Illustrator 21.0.2, SVG Export Plug-In . SVG Version: 6.00 Build 0)  -->
<svg version="1.1" id="Layer_1" xmlns="http://www.w3.org/2000/svg" xmlns:xlink="http://www.w3.org/1999/xlink" x="0px" y="0px"
	 viewBox="0 0 67 66.9" style="enable-background:new 0 0 67 66.9;" xml:space="preserve">
<style type="text/css">
	.st0{fill:#54CBFF;}
	.st1{fill:#FFFFFF;}
	.st2{fill:#231F20;}
</style>
<g>
	<g>
		<path style="fill:#54CBFF;" d="M26,14.9c14.4,0,26,11.6,26,26s-11.6,26-26,26c-14.4,0-26-11.6-26-26S11.6,14.9,26,14.9z"/>
	</g>
	<g>
		<path style="fill:#FFFFFF;" d="M61.9,45.8c0.1-1,0.1-2.1,0.1-3.2c0-21-17-38-38-38c-1.1,0-2.1,0.1-3.2,0.1c4.5-2.6,9.6-4.1,15.2-4.1
			c16.6,0,30,13.4,30,30C66.1,36.2,64.6,41.4,61.9,45.8z"/>
	</g>
	<g>
		<path style="fill:#231F20;" d="M36,2c16,0,29,13,29,29c0,16-13,29-29,29S7,47,7,31C7,15,20,2,36,2 M36,0C18.9,0,5,13.9,5,31
			c0,17.1,13.9,31,31,31s31-13.9,31-31C67,13.9,53.1,0,36,0L36,0z"/>
	</g>
	<g>
		<path style="fill:#231F20;" d="M34,13.8c0.6,0,1,0.4,1,1v18c0,0.6-0.4,1-1,1c-0.6,0-1-0.4-1-1v-18C33,14.2,33.5,13.8,34,13.8z"/>
		<path style="fill:#231F20;" d="M47,32.8c0,0.6-0.4,1-1,1H34c-0.6,0-1-0.4-1-1c0-0.6,0.4-1,1-1h12C46.6,31.8,47,32.2,47,32.8z"/>
	</g>
</g>
</svg>
