<?xml version="1.0" encoding="utf-8"?>
<!-- Generator: Adobe Illustrator 21.0.2, SVG Export Plug-In . SVG Version: 6.00 Build 0)  -->
<svg version="1.1" id="Layer_1" xmlns="http://www.w3.org/2000/svg" xmlns:xlink="http://www.w3.org/1999/xlink" x="0px" y="0px"
	 viewBox="0 0 71.3 66.1" style="enable-background:new 0 0 71.3 66.1;" xml:space="preserve">
<style type="text/css">
	.st0{fill:#54CBFF;}
	.st1{fill:#FFFFFF;}
	.st2{fill:#231F20;}
</style>
<g>
	<g>
		<path class="st0" d="M18.8,31.5c0,0-10.4,1.1-17.3,1.9c-0.6,0.1-1.2,0.5-1.4,1.1c-0.2,0.6,0,1.3,0.5,1.7
			c5.2,4.6,12.9,11.4,12.9,11.4c0,0-2.1,10-3.5,16.6c-0.1,0.6,0.1,1.2,0.6,1.6c0.5,0.4,1.2,0.4,1.8,0.1c6.1-3.4,15.2-8.4,15.2-8.4
			s9.1,5,15.2,8.4c0.6,0.3,1.2,0.3,1.8-0.1c0.5-0.4,0.8-1,0.6-1.6c-1.4-6.6-3.5-16.6-3.5-16.6s7.7-6.8,12.9-11.4
			c0.5-0.4,0.7-1.1,0.5-1.7c-0.2-0.6-0.8-1-1.4-1.1c-6.9-0.8-17.4-1.9-17.4-1.9S31.9,22.2,29,16c-0.3-0.6-0.8-0.9-1.5-0.9
			c-0.7,0-1.2,0.4-1.5,0.9C23.1,22.2,18.8,31.5,18.8,31.5z"/>
	</g>
	<g>
		<path class="st1" d="M69.4,25.5c-1.4,1.3-3,2.7-4.6,4.2c-0.3-0.4-0.7-0.6-1.2-0.7c-8-0.9-20-2.2-20-2.2s-5-10.8-8.3-18
			c-0.2-0.5-0.7-0.9-1.3-1c0.9-2,1.8-3.9,2.6-5.7c0.3-0.6,1-1.1,1.7-1.1s1.4,0.4,1.7,1.1c3.3,7.2,8.3,18,8.3,18s12,1.3,20,2.2
			c0.7,0.1,1.4,0.6,1.6,1.3C70.2,24.3,69.9,25.1,69.4,25.5z"/>
	</g>
	<g>
		<path class="st2" d="M38.3,2L38.3,2l8.6,18.7c0.3,0.6,0.9,1.1,1.6,1.2c0,0,12.4,1.3,20.7,2.2c-6.2,5.5-15.4,13.8-15.4,13.8
			c-0.5,0.5-0.8,1.2-0.6,1.9c0,0,2.5,12,4.2,20L39.3,49.7c-0.3-0.2-0.6-0.3-1-0.3s-0.7,0.1-1,0.3c0,0-10.9,6.1-18.2,10.2
			c1.6-7.8,4.1-19.4,4.2-20c0.2-0.7-0.1-1.5-0.6-2c0,0-9.2-8.2-15.4-13.7c8.3-0.9,20.7-2.3,20.7-2.3c0.7-0.1,1.3-0.5,1.6-1.2
			C29.7,20.7,34.8,9.5,38.3,2 M38.3,0c-0.8,0-1.5,0.5-1.8,1.1c-3.5,7.5-8.6,18.8-8.6,18.8S15.4,21.3,7,22.2
			c-0.8,0.1-1.4,0.6-1.7,1.3c-0.2,0.7,0,1.5,0.6,2c6.2,5.5,15.5,13.9,15.5,13.9c0,0-2.6,12.1-4.2,20.2c-0.1,0.7,0.1,1.5,0.8,2
			c0.3,0.2,0.7,0.4,1.1,0.4c0.3,0,0.7-0.1,1-0.3c7.3-4.1,18.2-10.2,18.2-10.2s10.9,6.1,18.2,10.2c0.3,0.2,0.7,0.3,1,0.3
			c0.4,0,0.8-0.1,1.1-0.4c0.6-0.5,0.9-1.2,0.8-2c-1.7-8.1-4.2-20.2-4.2-20.2s9.3-8.3,15.5-13.8c0.6-0.5,0.8-1.3,0.6-2
			c-0.2-0.7-0.9-1.2-1.7-1.3c-8.3-0.9-20.8-2.3-20.8-2.3S43.5,8.6,40.1,1.1C39.8,0.5,39.1,0,38.3,0L38.3,0z"/>
	</g>
</g>
</svg>
