<?xml version="1.0" encoding="utf-8"?>
<!-- Generator: Adobe Illustrator 21.0.2, SVG Export Plug-In . SVG Version: 6.00 Build 0)  -->
<svg version="1.1" id="Layer_1" xmlns="http://www.w3.org/2000/svg" xmlns:xlink="http://www.w3.org/1999/xlink" x="0px" y="0px"
	 viewBox="0 0 50 62" style="enable-background:new 0 0 50 62;" xml:space="preserve">
<style type="text/css">
	.st0{fill:#54CBFF;}
	.st1{fill:#FFFFFF;}
	.st2{fill:#231F20;}
</style>
<g>
	<g>
		<path class="st0" d="M23.7,6.3h7v21l-7,6V6.3z"/>
		<path class="st0" d="M29.7,6.3h7v27l-7-6V6.3z"/>
	</g>
	<g>
		<path class="st1" d="M8.3,0.7h-1l-3,1l-2,2l-1,3v45l2-1l2-2h3V0.7z"/>
	</g>
	<g>
		<path class="st2" d="M49,56H10c-0.6,0-1-0.4-1-1c0-0.6,0.4-1,1-1h39c0.6,0,1,0.4,1,1C50,55.6,49.6,56,49,56z M47,50h-7H14H7
			c-2.8,0-5,2.2-5,5c0,2.8,2.2,5,5,5h31h2h9c0.6,0,1,0.4,1,1s-0.4,1-1,1h-9h-2H7c-3.5,0-6.4-2.6-6.9-6H0V35h0.1c0-0.3-0.1-0.7-0.1-1
			V8c0-4.4,3.6-8,8-8h6h17h16c1.7,0,3,1.3,3,3v44C50,48.7,48.7,50,47,50z M40,2h-3h-0.7H31v23.6l3.3-3.3c0.3-0.3,0.6-0.6,1.2-0.6
			s0.9,0.3,1.2,0.6l3.3,3.3V2z M48,3c0-0.6-0.4-1-1-1h-5v26c0,0.3-0.1,0.5-0.3,0.7c-0.4,0.4-1,0.4-1.4,0l-4.8-4.8l-4.8,4.8
			c-0.4,0.4-1,0.4-1.4,0C29.1,28.5,29,28.2,29,28V2H8C4.7,2,2,4.7,2,8v27v4.3v10.8C3.3,48.8,5,48,7,48h3h1.2H47c0.6,0,1-0.4,1-1V3z"
			/>
	</g>
</g>
</svg>
