<?xml version="1.0" encoding="utf-8"?>
<!-- Generator: Adobe Illustrator 21.0.2, SVG Export Plug-In . SVG Version: 6.00 Build 0)  -->
<svg version="1.1" id="Layer_1" xmlns="http://www.w3.org/2000/svg" xmlns:xlink="http://www.w3.org/1999/xlink" x="0px" y="0px"
	 viewBox="0 0 91.9 26.2" style="enable-background:new 0 0 91.9 26.2;" xml:space="preserve">
<style type="text/css">
	.st0{fill:url(#SVGID_1_);}
	.st1{fill:url(#SVGID_2_);}
	.st2{fill:url(#SVGID_3_);}
	.st3{fill:url(#SVGID_4_);}
	.st4{fill:url(#SVGID_5_);}
	.st5{fill:#08A7EC;}
	.st6{fill:#FFC000;}
	.st7{fill:#231F20;}
</style>
<g>
	<g>
		
			<linearGradient id="SVGID_1_" gradientUnits="userSpaceOnUse" x1="25.21" y1="21.892" x2="37.942" y2="21.892" gradientTransform="matrix(1 0 0 -1 0 27.508)">
			<stop  offset="0" style="stop-color:#FFE000"/>
			<stop  offset="1" style="stop-color:#FFE600"/>
		</linearGradient>
		<path class="st0" d="M37.3,4.9c-0.5-0.4-0.9-0.4-0.9-0.4v0C35.8,2,33.6,0,30.8,0c-3.1,0-5.6,2.5-5.6,5.6c0,3.1,2.5,5.6,5.6,5.6
			c2.8,0,5.1-2,5.5-4.7l0,0c0,0,0.1-0.4,0.7-0.7c0.6-0.3,0.9-0.2,0.9-0.2S37.8,5.3,37.3,4.9z"/>
		
			<linearGradient id="SVGID_2_" gradientUnits="userSpaceOnUse" x1="11.3522" y1="11.067" x2="32.3801" y2="11.067" gradientTransform="matrix(1 0 0 -1 0 27.508)">
			<stop  offset="0" style="stop-color:#FFE000"/>
			<stop  offset="1" style="stop-color:#FFE600"/>
		</linearGradient>
		<path class="st1" d="M32,10.5c-1.6-3.8-7.4-5-13-2.7s-8.8,7.3-7.3,11.1c0.8,1.9,2.6,3.1,4.9,3.6c0.1,0.3,0.2,0.8,0.1,1.4
			c-0.1,1.3-0.8,2.3-0.8,2.3s1.5,0.1,3.2-1.2c1-0.8,1.5-1.9,1.6-2.4c1.3-0.2,2.6-0.5,3.9-1.1C30.3,19.3,33.6,14.3,32,10.5z"/>
		
			<linearGradient id="SVGID_3_" gradientUnits="userSpaceOnUse" x1="0" y1="16.1775" x2="29.572" y2="16.1775" gradientTransform="matrix(1 0 0 -1 0 27.508)">
			<stop  offset="0" style="stop-color:#7FD8FF"/>
			<stop  offset="1" style="stop-color:#ADE6FF"/>
		</linearGradient>
		<path class="st2" d="M0,21c2,0.4,4.1,0.5,6.3,0.5c12.8,0,23.2-6.5,23.2-14.5c0-2.1-0.7-4.2-2-6C23.3,4.2,4.2,18.1,0,21z"/>
		
			<linearGradient id="SVGID_4_" gradientUnits="userSpaceOnUse" x1="11.3517" y1="13.7173" x2="29.543" y2="13.7173" gradientTransform="matrix(1 0 0 -1 0 27.508)">
			<stop  offset="0" style="stop-color:#39C3FF"/>
			<stop  offset="1" style="stop-color:#5FCEFF"/>
		</linearGradient>
		<path class="st3" d="M29.5,7.8c-2.6-1.5-6.6-1.6-10.5,0c-1.2,0.5-2.3,1.1-3.2,1.8c0,0-0.1,0.1-0.1,0.1c-3.5,2.6-5.2,6.2-4,9.2
			c0.3,0.8,0.9,1.5,1.5,2C22.3,19.2,29,14,29.5,7.8z"/>
		<g>
			
				<linearGradient id="SVGID_5_" gradientUnits="userSpaceOnUse" x1="25.209" y1="23.062" x2="29.572" y2="23.062" gradientTransform="matrix(1 0 0 -1 0 27.508)">
				<stop  offset="0" style="stop-color:#39C3FF"/>
				<stop  offset="1" style="stop-color:#5FCEFF"/>
			</linearGradient>
			<path class="st4" d="M25.3,6.7c1.6,0.1,3.1,0.5,4.2,1.2c0-0.3,0-0.5,0-0.8c0-2.1-0.7-4.2-2-6c-1.4,1-2.3,2.7-2.3,4.5
				C25.2,6,25.3,6.7,25.3,6.7z"/>
		</g>
		<path class="st5" d="M29.5,7.8c-0.1,0-0.2-0.1-0.2-0.1c0,0,0,0,0,0c-0.3-0.2-0.7-0.3-1.1-0.5c0,0,0,0,0,0c-0.1,0-0.2-0.1-0.3-0.1
			c0,0,0,0,0,0c-0.1,0-0.2-0.1-0.3-0.1c0,0,0,0,0,0c-0.1,0-0.2,0-0.3-0.1c0,0,0,0,0,0c-0.4-0.1-0.8-0.2-1.2-0.2c0,0,0,0,0,0
			c-0.1,0-0.2,0-0.3,0c0,0,0,0,0,0c-0.1,0-0.2,0-0.3,0c0,0,0,0,0,0c0,0-0.1,0-0.1,0c0.4,1.9,1.7,3.5,3.5,4.2
			C29.2,9.9,29.5,8.9,29.5,7.8C29.5,7.8,29.5,7.8,29.5,7.8z"/>
		<g>
			<path class="st6" d="M32,10.5c-0.5-1.1-1.3-2.1-2.4-2.7c-0.1,1-0.3,2-0.8,3c0.6,0.2,1.3,0.4,2.1,0.4c0.5,0,0.9-0.1,1.3-0.2
				C32.1,10.9,32.1,10.7,32,10.5z"/>
		</g>
	</g>
	<path class="st7" d="M50.5,17.5c-0.7,1.5-2.5,2.8-5.1,2.5c-2.7-0.3-4.7-2.6-4.4-6.1c0.5-4.6,3-6.6,5.2-6.6c1.2,0,2.1,1,2.2,1.7
		c0.2,1.7-1.1,2.2-2,1.5c-0.1-0.1,0.5-2.2-0.6-2.4c-0.7-0.1-2,1.4-2.4,5.4c-0.3,3.3,1.1,4.9,2.7,5.3c1.8,0.4,3.4-0.4,4-1.6
		C50.5,16.8,50.8,16.9,50.5,17.5z"/>
	<path class="st7" d="M56.1,14.2c-0.2,1.7-1.7,3.5-3.7,3.2c-1.4-0.2-2.2-1.4-1.7-3.4c0.3-1.2,1.4-2.1,2.4-2.4
		c0.9-0.2,0.5,0.3,0.4,0.5c-0.3,0.3-0.8,1.2-0.9,2.1c-0.2,1.2,0,2.3,0.7,2.3c0.8,0,1.5-1,1.6-2.4c0.2-1.6-0.4-2.1-0.8-1.6
		c-0.2,0.2-0.4,1.2,0.3,1.6c0.5,0.3-0.6,1.3-1,0.5c-0.5-0.9,0.2-2.6,0.7-2.8C55,11.6,56.3,12.6,56.1,14.2z"/>
	<path class="st7" d="M62,14.9c-0.5,1.7-2.3,2.7-3.7,2.5c-1.3-0.1-1.7-0.8-1.6-2.9c0-0.6,0.1-1.9,0.3-3.2c-0.4,0-0.9-0.1-1.4-0.3
		c-1.4-0.5-1.4-1.9-1.2-2.4c0.2-0.4,0.3,0.7,1.7,1c0.4,0.1,0.8,0.2,1.2,0.2c0.6-2.8,1.9-4.4,2.9-4.8c2.6-0.9,2.2,4.5-1.1,5.9
		c-0.1,0.6-0.2,1.2-0.3,1.6c0.1-0.1,0.3-0.3,0.4-0.4c0.6-0.5,1.3-0.7,2-0.6C62.2,11.8,62.5,13.1,62,14.9z M59.5,12.7
		c-0.7,0.5-1.7,1.6-1.7,3.1c0,0.5,0.1,0.9,0.4,1c0.7,0.3,1.6-1,1.9-2.2C60.4,13.1,60,12.3,59.5,12.7z M59.3,9.6
		c1.5-0.6,1.9-2,1.7-2.7c-0.1-0.4-0.5-0.8-0.8-0.2C59.9,7.6,59.5,8.6,59.3,9.6z"/>
	<path class="st7" d="M67.8,14.2c-0.2,1.7-1.7,3.5-3.7,3.2c-1.4-0.2-2.2-1.4-1.7-3.4c0.3-1.2,1.4-2.1,2.4-2.4
		c0.9-0.2,0.5,0.3,0.4,0.5c-0.3,0.3-0.8,1.2-0.9,2.1c-0.2,1.2,0.1,2.3,0.7,2.3c0.8,0,1.5-1,1.6-2.4c0.2-1.6-0.4-2.1-0.8-1.6
		c-0.2,0.2-0.4,1.2,0.3,1.6c0.5,0.3-0.6,1.3-1,0.5c-0.5-0.9,0.2-2.6,0.7-2.8C66.8,11.6,68.1,12.6,67.8,14.2z"/>
	<path class="st7" d="M78.8,18.9c-1.4,0.8-4.9,0.7-4.4-3.9c0.2-1.8,0-2-0.4-1.7c-0.6,0.4-1.1,1.7-1.1,2.5c-0.1,0.8,0,1,0,1.3
		c0,0.3-1,0.6-1.5,0.2c-0.2-0.2-0.4-0.4-0.1-2.2c0.2-1.8-0.1-2-0.5-1.7c-0.6,0.4-1.1,1.9-1.1,2.6c0,0.7,0,0.9,0.1,1.2
		c0,0.3-1,0.6-1.5,0.2c-0.2-0.1-0.2-1.6,0-3.5c0.2-1.6,0.5-2.7,0.7-2.7c1.5-0.4,1.7,0.2,1.2,1.4c-0.2,0.5-0.3,1-0.4,1.5
		c0.4-0.8,0.9-1.5,1.4-1.9c1.4-0.8,2.5-0.4,2,1.2c-0.1,0.2-0.1,0.4-0.1,0.5c0.4-0.8,0.9-1.5,1.4-1.8c1.4-0.8,2.6-0.4,2.1,1.2
		c-1.4,4.6,0.6,5.9,2.1,5C79.3,17.9,79.6,18.4,78.8,18.9z"/>
	<path class="st7" d="M85.1,13c-0.8,2.4-0.3,4.2-0.6,4.3c-1.7,0.5-1.8-0.5-1.4-4c0.1-0.7,0.2-1.5,0.4-1.6
		C84.9,11.2,85.6,11.4,85.1,13z M83.7,10.6c-0.3-0.4-0.1-0.9,0.8-1.3c0.4-0.2,1-0.5,1.3,0.3C86.3,10.8,84.4,11.5,83.7,10.6z"/>
	<path class="st7" d="M91.5,14.9c-0.3,0.1-0.7,0.2-1,0.2c-0.8,2.3-3.6,3.2-3.8,2c-0.1-0.8,0.5-1.5,1.9-2.1c0-0.1,0.1-0.2,0.1-0.4
		c0.3-1.5,0.3-2.4-0.2-2c-0.4,0.3-1.5,1.4-2,3.4c0,0,0,0,0,0.1c-0.3,1.6-0.4,3-0.2,4.2c0,0.3-0.9,0.6-1.4,0.2
		c-0.2-0.1,0-2.4,0.2-4.3c0.1-1.3,0.8-5,1.1-5.1c1-0.4,2,0,1.4,1.6c0,0.1-0.1,0.2-0.1,0.3c0.2-0.3,0.5-0.6,0.7-0.8
		c0.4-0.4,0.9-0.6,1.5-0.6c1,0.1,1.4,1.1,1.1,2.7c0,0,0,0.1,0,0.1c0.2-0.1,0.5-0.1,0.7-0.2C92.1,14.2,92.1,14.8,91.5,14.9z
		 M88.4,15.9c-0.7,0.4-1,0.7-0.8,0.8C87.8,16.9,88.1,16.5,88.4,15.9z"/>
	<path class="st7" d="M44.8,16.5c0.1,0.8,0.8,1.2,1.6,0.9c0.6-0.3,0.6-1,0.9-2.6c0.3-1.3,0.8-2.3,1.5-2.6c0.4-0.2,0.7,0.2,0.8,1
		c0.1,0.8-0.2,1.6-0.5,2.3c-0.5,1.4-0.4,2.1,0.7,1.6c0.2-0.1,0.2-0.2,0.3-0.4c0.2-0.7,0.5-2.4,0.3-3.8c-0.1-0.9-0.7-1.5-1.5-1.6
		C47.4,11.2,44.4,13.7,44.8,16.5z"/>
	<path class="st7" d="M82.5,14.9c-0.5,1.7-2.3,2.7-3.7,2.5c-1.3-0.1-1.7-0.8-1.6-2.9c0-0.6,0.1-1.9,0.3-3.2c-0.4,0-0.9-0.1-1.4-0.3
		c-1.4-0.5-1.4-1.9-1.2-2.4c0.2-0.4,0.3,0.7,1.7,1c0.4,0.1,0.8,0.2,1.2,0.2c0.6-2.8,1.9-4.4,2.9-4.8c2.6-0.9,2.2,4.5-1.1,5.9
		c-0.1,0.6-0.2,1.2-0.3,1.6c0.1-0.1,0.3-0.3,0.4-0.4c0.6-0.5,1.3-0.7,2-0.6C82.7,11.8,83,13.1,82.5,14.9z M80,12.7
		c-0.7,0.5-1.7,1.6-1.7,3.1c0,0.5,0.1,0.9,0.4,1c0.7,0.3,1.6-1,1.9-2.2C81,13.1,80.5,12.3,80,12.7z M79.8,9.6c1.5-0.6,1.9-2,1.7-2.7
		c-0.1-0.4-0.5-0.8-0.8-0.2C80.4,7.6,80,8.6,79.8,9.6z"/>
</g>
</svg>
