<?xml version="1.0" encoding="utf-8"?>
<!-- Generator: Adobe Illustrator 21.0.2, SVG Export Plug-In . SVG Version: 6.00 Build 0)  -->
<svg version="1.1" id="Layer_1" xmlns="http://www.w3.org/2000/svg" xmlns:xlink="http://www.w3.org/1999/xlink" x="0px" y="0px"
	 viewBox="0 0 22 21" style="enable-background:new 0 0 22 21;" xml:space="preserve">
<g>
	<path d="M21.7,19.1c0.4,0.4,0.4,1.1,0,1.6s-1.1,0.4-1.6,0l-4.8-4.8c-0.1-0.1-0.2-0.2-0.2-0.3C13.5,17.1,11.4,18,9,18c-5,0-9-4-9-9
		s4-9,9-9s9,4,9,9c0,1.9-0.6,3.6-1.6,5.1c0.2,0.1,0.3,0.1,0.5,0.3L21.7,19.1z M9,2C5.1,2,2,5.1,2,9s3.1,7,7,7s7-3.1,7-7S12.9,2,9,2z
		"/>
</g>
</svg>
